<svg width="420" height="120" viewBox="0 0 420 120" fill="none" xmlns="http://www.w3.org/2000/svg">
<g clip-path="url(#clip0_184_78)">
<path fill-rule="evenodd" clip-rule="evenodd" d="M33.3913 44.9933C32.9841 43.7719 30.3463 39.5003 29.5715 42.1449C28.5738 45.5507 31.8895 52.9001 31.8895 52.9001" fill="white"/>
<path fill-rule="evenodd" clip-rule="evenodd" d="M33.6555 44.9052C33.704 45.051 33.6251 45.2088 33.4792 45.2574C33.3336 45.3059 33.1757 45.227 33.1271 45.0813C32.8924 44.3771 31.8876 42.6163 30.9591 41.8704C30.7149 41.6741 30.4886 41.5391 30.2828 41.5812C30.0836 41.6218 29.9525 41.8347 29.8387 42.2232C29.4508 43.5474 29.7467 45.4839 30.226 47.3322C30.9594 50.1612 32.1434 52.7856 32.1434 52.7856C32.2065 52.9257 32.1441 53.0907 32.0041 53.1539C31.864 53.217 31.6989 53.1547 31.6358 53.0146C31.6358 53.0146 30.4323 50.3474 29.6869 47.4719C29.1801 45.5171 28.894 43.4671 29.3043 42.0667C29.5007 41.3962 29.8276 41.1057 30.1714 41.0356C30.5086 40.9667 30.9078 41.1147 31.3079 41.4362C32.3117 42.2427 33.4016 44.1439 33.6555 44.9052Z" fill="#DB90B0"/>
<path fill-rule="evenodd" clip-rule="evenodd" d="M62.7781 92.9656C62.7781 92.9656 50.8661 93.0196 43.6057 86.5762C23.0625 68.3445 32.8121 36.0782 44.9202 26.2583C55.0314 18.0578 88.9637 19.5894 88.6852 58.2739C88.4829 86.3716 72.8486 88.6393 72.8486 88.6393C72.8486 88.6393 78.0264 89.014 81.3195 93.2912C85.3341 98.5054 82.3751 103.899 77.18 103.16C72.4056 102.481 68.5754 92.2685 68.5754 92.2685C68.5754 92.2685 72.9555 100.894 69.6104 105.085C66.9723 108.39 61.767 107.1 60.5523 101.956C59.2851 96.5911 62.7781 92.9656 62.7781 92.9656Z" fill="white"/>
<path fill-rule="evenodd" clip-rule="evenodd" d="M70.6883 97.3274C70.7962 97.7811 70.8912 98.2477 70.9662 98.7196C71.338 101.058 71.2129 103.524 69.8279 105.259C68.1526 107.358 65.4989 107.706 63.3663 106.472C61.9662 105.663 60.7878 104.165 60.2813 102.02C59.2466 97.6395 61.301 94.3868 62.1926 93.2314C59.6952 93.1429 49.7878 92.435 43.4209 86.7844C31.0083 75.7685 29.5657 59.6677 33.041 46.411C35.3589 37.5699 39.8656 29.9991 44.7449 26.0419C47.6133 23.7155 52.3714 22.1529 57.7336 21.9826C65.749 21.7278 75.1119 24.577 81.4836 32.5752C86.0225 38.2729 89.0477 46.5896 88.9636 58.2761C88.8618 72.4322 84.8554 80.0763 80.8914 84.1866C78.28 86.8944 75.677 88.0805 74.1782 88.5786C75.9658 88.981 79.2129 90.0987 81.5401 93.1212C83.6266 95.8314 83.8782 98.5923 82.9559 100.575C82.0207 102.586 79.8783 103.825 77.1407 103.436C75.1665 103.155 73.3305 101.319 71.8595 99.1913C71.4385 98.582 71.0464 97.9499 70.6883 97.3274ZM69.2429 94.5322C68.6488 93.257 68.3147 92.3664 68.3147 92.3664C68.2628 92.228 68.328 92.0733 68.4633 92.0137C68.5986 91.9542 68.7567 92.0108 68.8236 92.1424C68.8236 92.1424 69.2602 93.0022 69.7548 94.3131C70.3618 95.6149 71.2431 97.32 72.3177 98.8745C73.6926 100.864 75.3739 102.622 77.2191 102.884C79.6767 103.234 81.6114 102.145 82.4509 100.341C83.3032 98.5081 83.027 95.9652 81.099 93.4611C77.8833 89.2847 72.8285 88.917 72.8285 88.917C72.6867 88.9067 72.5755 88.7913 72.5704 88.6492C72.5652 88.5073 72.668 88.3841 72.8087 88.3637C72.8087 88.3637 76.6344 87.7986 80.4907 83.8C84.3944 79.752 88.3065 72.2135 88.4068 58.2719C88.4898 46.7476 85.5242 38.5411 81.0481 32.9223C74.7987 25.0776 65.6129 22.2892 57.7513 22.5392C52.5288 22.7051 47.8894 24.2087 45.0956 26.4744C40.2882 30.3733 35.8633 37.8413 33.5797 46.5522C30.1529 59.6237 31.5513 75.5059 43.7905 86.368C50.9795 92.7479 62.7769 92.6871 62.7769 92.6871C62.8887 92.6865 62.9901 92.7532 63.0341 92.8559C63.0781 92.9589 63.0562 93.0781 62.9786 93.1586C62.9786 93.1586 59.5926 96.6814 60.8233 101.892C61.2887 103.862 62.359 105.246 63.6451 105.99C65.5421 107.088 67.9025 106.778 69.3928 104.911C70.6841 103.294 70.763 100.988 70.4163 98.807C70.1638 97.22 69.6809 95.6959 69.2429 94.5322Z" fill="#DB90B0"/>
<path fill-rule="evenodd" clip-rule="evenodd" d="M65.0851 47.8358C65.0406 47.9829 64.885 48.0662 64.738 48.0216C64.5909 47.9772 64.5076 47.8216 64.552 47.6745C64.552 47.6745 65.415 44.845 66.6408 43.5171C67.2491 42.8582 67.9481 42.5604 68.669 42.9367C69.6735 43.4611 70.0749 44.5798 70.1032 45.9087C70.1648 48.7939 68.491 52.6739 68.491 52.6739C68.43 52.8149 68.266 52.88 68.1249 52.8189C67.9839 52.7579 67.919 52.5937 67.98 52.4528C67.98 52.4528 69.1756 49.6921 69.4794 47.1429C69.5779 46.3172 69.5835 45.514 69.4143 44.8409C69.2584 44.22 68.9526 43.713 68.4112 43.4303C67.9198 43.1737 67.4647 43.4456 67.05 43.8948C65.8898 45.1517 65.0851 47.8358 65.0851 47.8358Z" fill="#DB90B0"/>
<path fill-rule="evenodd" clip-rule="evenodd" d="M48.0828 30.1756C47.9093 30.3558 47.6483 30.4807 47.3318 30.5385C46.9178 30.614 46.4022 30.5771 45.9038 30.4344C45.0036 30.1769 44.1793 29.5699 44.0369 28.7382C43.974 28.3694 44.0378 27.9515 44.2957 27.4937C44.4658 27.1914 44.8193 27.0158 45.279 26.9887C45.846 26.9553 46.5867 27.1428 47.213 27.4761C47.9936 27.8914 48.5734 28.5398 48.54 29.2202C48.5248 29.5296 48.3915 29.8547 48.0828 30.1756ZM47.6815 29.7894C47.8764 29.5869 47.9742 29.3884 47.9837 29.193C47.9949 28.9662 47.8888 28.753 47.7238 28.5583C47.5305 28.3302 47.2563 28.13 46.9513 27.9676C46.4196 27.6848 45.7932 27.5163 45.3118 27.5447C45.0724 27.5588 44.8695 27.6096 44.7808 27.7669C44.5984 28.0907 44.5413 28.3835 44.5859 28.6443C44.695 29.2818 45.367 29.7017 46.057 29.899C46.4672 30.0165 46.891 30.0527 47.2319 29.9906C47.4188 29.9565 47.579 29.8959 47.6815 29.7894Z" fill="#DB90B0"/>
<path fill-rule="evenodd" clip-rule="evenodd" d="M54.5118 30.77C53.7424 29.454 54.8075 28.4263 56.2223 27.9415C57.1449 27.6255 58.192 27.5447 58.838 27.7296C59.1882 27.83 59.4328 28.0121 59.5446 28.2455C60.2354 29.687 59.1785 30.6791 57.8015 31.1202C56.8991 31.4093 55.8751 31.4537 55.2253 31.2588C54.8843 31.1567 54.6371 30.9844 54.5118 30.77ZM54.9925 30.489C55.0885 30.6529 55.332 30.7316 55.6318 30.7816C56.1942 30.8753 56.9519 30.8076 57.6316 30.5899C58.6691 30.2575 59.563 29.5722 59.0425 28.4861C59.0114 28.4214 58.9482 28.3755 58.8698 28.3356C58.7542 28.2769 58.6077 28.2382 58.4411 28.2144C57.8752 28.1335 57.0992 28.2298 56.4029 28.4684C55.9476 28.6243 55.5256 28.8408 55.2247 29.1159C55.0261 29.2975 54.8814 29.5031 54.8325 29.7366C54.7847 29.9649 54.8327 30.2157 54.9925 30.489Z" fill="#DB90B0"/>
<path fill-rule="evenodd" clip-rule="evenodd" d="M41.6546 35.5596C41.7478 35.4373 41.9226 35.4135 42.0449 35.5066C42.1672 35.5996 42.1909 35.7746 42.0979 35.8968C42.0979 35.8968 41.7469 36.3587 41.5649 36.9463C41.4528 37.3079 41.4004 37.7215 41.5699 38.0945C41.8151 38.6341 42.4706 38.9784 43.2205 39.1345C44.3873 39.3777 45.813 39.1601 46.4712 38.3037C46.7898 37.8889 46.8895 37.5442 46.8828 37.2751C46.8741 36.9289 46.688 36.7327 46.688 36.7327C46.5786 36.6248 46.5775 36.4484 46.6853 36.339C46.7933 36.2296 46.9697 36.2285 47.0792 36.3364C47.0792 36.3364 47.4246 36.6649 47.4395 37.2611C47.4484 37.6204 47.338 38.0896 46.9127 38.643C46.139 39.6499 44.4787 39.9656 43.1069 39.6797C42.1643 39.4834 41.371 39.003 41.063 38.3249C40.8352 37.8233 40.8823 37.2678 41.033 36.7815C41.245 36.0971 41.6546 35.5596 41.6546 35.5596Z" fill="#DB90B0"/>
<path fill-rule="evenodd" clip-rule="evenodd" d="M47.089 38.2642C46.9356 38.2554 46.8182 38.1237 46.827 37.9702C46.8359 37.8168 46.9676 37.6995 47.1211 37.7083L52.6472 38.0274C52.8007 38.0363 52.9181 38.1679 52.9091 38.3214C52.9003 38.4748 52.7686 38.5921 52.6151 38.5833L47.089 38.2642Z" fill="#DB90B0"/>
<path fill-rule="evenodd" clip-rule="evenodd" d="M53.5248 36.6541C53.6404 36.5528 53.8164 36.5643 53.9177 36.68C54.019 36.7955 54.0074 36.9715 53.8917 37.0728C53.8917 37.0728 53.3401 37.5544 53.0933 38.1728C52.9484 38.5359 52.913 38.9535 53.2288 39.3327C53.4425 39.5893 53.8251 39.7756 54.2825 39.9175C55.0327 40.1503 55.9813 40.2481 56.8223 40.2365C57.3758 40.229 57.8824 40.1744 58.2523 40.0764C58.4491 40.0241 58.6028 39.9687 58.6817 39.8883C59.1204 39.4412 59.0981 38.9239 58.9725 38.5196C58.8382 38.0865 58.5872 37.7727 58.5872 37.7727C58.4909 37.653 58.5101 37.4776 58.6298 37.3813C58.7496 37.2849 58.9249 37.304 59.0212 37.4238C59.0212 37.4238 59.3366 37.8142 59.5044 38.3546C59.6811 38.9237 59.697 39.6488 59.0792 40.2783C58.9509 40.4091 58.7151 40.5296 58.3951 40.6145C57.9902 40.722 57.4359 40.7852 56.83 40.7934C55.9316 40.8057 54.9189 40.698 54.1174 40.4494C53.5404 40.2702 53.0705 40.0129 52.801 39.6891C52.3311 39.1249 52.3605 38.5066 52.576 37.9663C52.8701 37.2297 53.5248 36.6541 53.5248 36.6541Z" fill="#DB90B0"/>
<path fill-rule="evenodd" clip-rule="evenodd" d="M43.88 40.3543C44.6694 39.4118 46.1735 38.7094 47.3648 38.6066C48.2629 38.5292 48.9803 38.8035 49.2169 39.444C49.3664 39.8486 49.3422 40.3633 49.1481 40.9286C48.8821 41.7037 48.2958 42.5866 47.4694 43.3924C46.1563 44.6729 44.632 44.6568 43.7611 43.9805C42.878 43.2949 42.5882 41.8964 43.88 40.3543ZM44.3069 40.7119C43.2972 41.9174 43.4123 43.0047 44.1027 43.5408C44.8049 44.086 46.0217 44.0264 47.0806 42.9937C47.8355 42.2576 48.3783 41.4559 48.6215 40.7479C48.7668 40.3245 48.8066 39.9401 48.6945 39.637C48.624 39.4461 48.4742 39.322 48.2794 39.247C48.0406 39.155 47.7408 39.1331 47.4126 39.1614C46.352 39.253 45.0098 39.8727 44.3069 40.7119Z" fill="#DB90B0"/>
<path fill-rule="evenodd" clip-rule="evenodd" d="M54.3164 40.3771C55.3636 41.237 55.7953 42.4486 55.7059 43.4452C55.6425 44.152 55.3192 44.7532 54.7814 45.0836C53.942 45.5996 52.4952 45.4687 50.5968 43.7814C49.6051 42.9001 48.9883 41.7597 48.8371 40.8363C48.7228 40.1381 48.8769 39.5555 49.2726 39.2302C50.4805 38.2372 51.8731 38.3709 54.3164 40.3771ZM53.963 40.8075C51.844 39.0676 50.6739 38.7992 49.6261 39.6605C49.3618 39.8778 49.3102 40.2798 49.3867 40.7463C49.5215 41.5695 50.0827 42.5795 50.9667 43.3652C51.805 44.1104 52.5355 44.5328 53.1522 44.707C53.7065 44.8637 54.1567 44.814 54.4899 44.6092C54.8849 44.3664 55.1048 43.9147 55.1513 43.3954C55.2269 42.5527 54.8484 41.5346 53.963 40.8075Z" fill="#DB90B0"/>
<path fill-rule="evenodd" clip-rule="evenodd" d="M45.1727 31.0247C45.2177 30.8778 45.3737 30.7952 45.5205 30.8403C45.6675 30.8854 45.7501 31.0413 45.705 31.1882L43.6954 37.7289C43.6503 37.8757 43.4944 37.9584 43.3475 37.9133C43.2006 37.868 43.118 37.7121 43.163 37.5652L45.1727 31.0247Z" fill="#DB90B0"/>
<path fill-rule="evenodd" clip-rule="evenodd" d="M56.557 32.0643C56.5888 31.9139 56.7366 31.8177 56.887 31.8495C57.0374 31.8812 57.1335 32.0291 57.1018 32.1794L55.8146 38.265C55.7828 38.4154 55.635 38.5117 55.4847 38.4798C55.3343 38.4481 55.2381 38.3002 55.2699 38.1498L56.557 32.0643Z" fill="#DB90B0"/>
<path fill-rule="evenodd" clip-rule="evenodd" d="M91.5174 52.0796C89.6434 48.7125 91.4524 42.0125 94.7943 38.6211C101.367 31.9503 109.694 27.8562 111.296 29.6097C116.347 35.1399 104.859 40.7277 104.859 40.7277C104.859 40.7277 112.107 40.35 112.466 43.6535C113.043 48.9608 104.04 50.7924 104.04 50.7924C104.04 50.7924 110.409 52.1983 108.838 55.1225C106.663 59.1713 95.2624 58.809 91.5174 52.0796Z" fill="white"/>
<path fill-rule="evenodd" clip-rule="evenodd" d="M91.274 52.2152C90.499 50.8224 90.322 48.8798 90.6233 46.824C91.0686 43.7848 92.5527 40.4992 94.5959 38.4256C99.2363 33.7165 104.747 30.2864 108.187 29.2553C109.111 28.9786 109.893 28.8739 110.479 28.9492C110.926 29.0066 111.27 29.1684 111.501 29.4219C112.359 30.3607 112.762 31.3036 112.842 32.2209C112.963 33.5861 112.364 34.9045 111.431 36.085C109.866 38.0634 107.362 39.6549 105.979 40.4419C106.956 40.4642 108.411 40.5658 109.708 40.9283C111.27 41.3646 112.587 42.1931 112.743 43.6234C112.985 45.8563 111.636 47.5159 109.905 48.6897C108.271 49.7981 106.303 50.4699 105.128 50.804C105.949 51.0611 107.103 51.4938 107.986 52.1062C109.107 52.8832 109.79 53.9391 109.083 55.2543C108.177 56.9425 105.747 57.9305 102.889 58.0169C98.6823 58.1439 93.5722 56.3447 91.274 52.2152ZM91.7606 51.9443C93.9565 55.8899 98.8528 57.5816 102.872 57.4603C105.498 57.381 107.76 56.5416 108.593 54.9907C109.143 53.9664 108.542 53.169 107.669 52.5638C106.213 51.5546 103.98 51.0642 103.98 51.0642C103.851 51.0359 103.76 50.9215 103.761 50.7901C103.762 50.6586 103.855 50.5457 103.984 50.5196C103.984 50.5196 107.168 49.8729 109.593 48.2287C111.153 47.1706 112.408 45.6965 112.189 43.6834C112.057 42.4708 110.883 41.8348 109.558 41.4647C107.434 40.8712 104.873 41.0057 104.873 41.0057C104.741 41.0126 104.622 40.9254 104.589 40.7972C104.556 40.669 104.618 40.5352 104.737 40.4773C104.737 40.4773 108.811 38.4997 110.994 35.7396C111.834 34.6769 112.396 33.4987 112.288 32.2699C112.216 31.4579 111.849 30.6283 111.09 29.7974C110.937 29.63 110.703 29.5395 110.408 29.5015C109.88 29.4338 109.178 29.5397 108.347 29.7888C104.965 30.8026 99.5548 34.1866 94.9926 38.8165C93.0255 40.8127 91.603 43.9789 91.1743 46.9047C90.8929 48.8256 91.0365 50.6431 91.7606 51.9443Z" fill="#DB90B0"/>
<path fill-rule="evenodd" clip-rule="evenodd" d="M99.0441 49.4712C99.1027 49.3292 99.2656 49.2614 99.4077 49.32C99.5497 49.3786 99.6175 49.5415 99.5589 49.6836C99.5589 49.6836 98.9026 51.2399 97.416 50.9395C97.0079 50.857 96.6519 50.4882 96.4564 49.9586C96.0477 48.8504 96.3268 47.0603 98.0297 46.4763C98.8179 46.2061 99.6437 46.5372 100.262 47.199C101.085 48.0808 101.523 49.5395 100.996 50.7456C100.647 51.5454 99.877 52.2489 98.4876 52.5845C97.1812 52.8999 96.1753 52.7232 95.453 52.2119C94.3845 51.4556 93.9173 49.9309 94.0757 48.03C94.2743 45.6452 95.8215 43.5869 97.6211 41.9841C100.275 39.6203 103.462 38.2483 103.462 38.2483C103.603 38.1875 103.767 38.2527 103.827 38.3939C103.888 38.5351 103.823 38.699 103.682 38.7597C103.682 38.7597 100.578 40.0968 97.9915 42.3999C96.2977 43.9085 94.8176 45.8318 94.6307 48.0762C94.4921 49.7405 94.8392 51.0952 95.7746 51.7574C96.3884 52.1918 97.2468 52.3111 98.3569 52.0431C99.5255 51.761 100.192 51.1955 100.486 50.5228C100.924 49.5202 100.539 48.312 99.8545 47.5791C99.3957 47.0876 98.7957 46.8024 98.2105 47.0031C97.0554 47.3993 96.74 48.5027 96.8751 49.3609C96.9191 49.6413 97.0108 49.8961 97.141 50.0897C97.2462 50.2461 97.3736 50.3627 97.5264 50.3936C98.5893 50.6085 99.0441 49.4712 99.0441 49.4712Z" fill="#DB90B0"/>
<path fill-rule="evenodd" clip-rule="evenodd" d="M83.2637 32.4382C79.6422 29.2465 86.8741 13.684 94.2141 11.3707C99.5744 9.68139 97.9479 14.6537 95.9241 17.5066C94.2127 19.9191 93.0239 21.964 93.0239 21.964C93.0239 21.964 94.9552 18.8344 99.0942 18.3933C101.722 18.1133 103.761 21.6193 99.7731 24.3304C98.2178 25.3879 93.857 28.1533 93.857 28.1533C93.857 28.1533 95.9074 26.5643 99.1053 26.8047C101.759 27.0042 100.768 30.59 96.3378 33.0919C93.4003 34.7509 86.4367 35.2347 83.2637 32.4382Z" fill="white"/>
<path fill-rule="evenodd" clip-rule="evenodd" d="M96.6848 26.6786C97.3959 26.5337 98.2161 26.4586 99.1261 26.527C99.746 26.5737 100.19 26.7904 100.471 27.1115C100.76 27.441 100.885 27.887 100.831 28.4124C100.688 29.7809 99.2393 31.7732 96.4748 33.3345C94.6752 34.3506 91.3973 34.9429 88.3621 34.6312C86.3188 34.4211 84.3881 33.8004 83.0796 32.6471C82.6034 32.2273 82.2915 31.616 82.1373 30.8543C81.9202 29.7801 82.0167 28.3953 82.3735 26.8545C83.1896 23.3287 85.3643 18.9673 88.0959 15.6895C89.9362 13.4811 92.0319 11.7666 94.1303 11.1052C95.876 10.555 96.9379 10.7069 97.5115 11.2009C98.0692 11.6815 98.2172 12.5112 98.05 13.488C97.8223 14.8191 97.0247 16.4364 96.1512 17.6678C95.5881 18.4615 95.0818 19.2155 94.6564 19.8688C95.6832 19.0867 97.1439 18.3211 99.0646 18.1164C100.809 17.9304 102.316 19.2568 102.292 20.9925C102.276 22.1047 101.626 23.4072 99.9298 24.5606C99.2111 25.0492 97.8945 25.9018 96.6848 26.6786ZM94.5358 28.0517C94.2061 28.2616 94.0061 28.3885 94.0061 28.3885C93.8805 28.4681 93.7145 28.435 93.6291 28.3133C93.5437 28.1916 93.5689 28.0243 93.6864 27.9333C93.6864 27.9333 93.8825 27.7805 94.2484 27.5747C95.4636 26.8014 98.3998 24.9274 99.6166 24.1001C101.11 23.0846 101.721 21.964 101.735 20.9848C101.755 19.5836 100.532 18.52 99.1237 18.67C95.1288 19.0959 93.2608 22.1102 93.2608 22.1102C93.1808 22.2398 93.0114 22.2811 92.8807 22.2029C92.75 22.1245 92.7065 21.9558 92.7831 21.824C92.7831 21.824 93.9775 19.7694 95.6969 17.3456C96.5235 16.1804 97.2857 14.6536 97.5012 13.3941C97.6295 12.6433 97.5768 11.9922 97.1481 11.6229C96.9241 11.4299 96.6016 11.3231 96.1677 11.3088C95.6799 11.2929 95.064 11.3949 94.2978 11.6364C92.2859 12.2704 90.2881 13.9288 88.5236 16.046C85.8482 19.2565 83.7153 23.5268 82.916 26.9802C82.5802 28.4302 82.4787 29.733 82.6831 30.7439C82.8103 31.3722 83.0549 31.883 83.4478 32.2294C84.6777 33.3132 86.4985 33.8799 88.419 34.0771C91.3296 34.3763 94.4753 33.824 96.2009 32.8495C98.753 31.4083 100.145 29.6179 100.277 28.3544C100.314 28.0025 100.246 27.6991 100.052 27.4785C99.8519 27.2494 99.5264 27.1155 99.0844 27.0823C96.9267 26.9202 95.3104 27.6188 94.5358 28.0517Z" fill="#DB90B0"/>
<path fill-rule="evenodd" clip-rule="evenodd" d="M89.8955 29.4566C89.9434 29.3106 90.1007 29.231 90.2468 29.2787C90.3928 29.3266 90.4724 29.4841 90.4245 29.6302C90.4245 29.6302 90.307 29.9883 90.0671 30.2745C89.8786 30.4995 89.6191 30.6742 89.3006 30.6737C88.9984 30.6733 88.611 30.5098 88.1726 29.964C87.7145 29.3935 87.597 28.6033 87.7373 27.9275C87.8337 27.4635 88.0515 27.0559 88.3486 26.8005C88.7816 26.428 89.2143 26.2858 89.6149 26.3021C90.2089 26.3262 90.7499 26.7072 91.1347 27.2973C92.0363 28.6791 92.0647 31.1885 90.0554 32.2103C88.739 32.8797 87.2316 32.5933 86.2558 31.5032C85.6228 30.7961 85.2115 29.7436 85.247 28.3841C85.3112 25.9138 86.3897 23.6064 87.6673 21.7294C89.5671 18.9384 91.8994 17.1033 91.8994 17.1033C92.0201 17.0082 92.1953 17.029 92.2904 17.1498C92.3854 17.2705 92.3647 17.4457 92.2439 17.5408C92.2439 17.5408 89.9759 19.3273 88.1276 22.0427C86.9067 23.8366 85.865 26.0377 85.8036 28.3986C85.7726 29.5877 86.117 30.5131 86.6708 31.1318C87.4751 32.0305 88.7179 32.2656 89.8029 31.7139C91.4817 30.8603 91.4216 28.756 90.6683 27.6015C90.3913 27.1769 90.0198 26.8758 89.5922 26.8585C89.3118 26.8471 89.015 26.9619 88.7117 27.2226C88.4977 27.4067 88.352 27.7064 88.2826 28.0408C88.1743 28.5626 88.2532 29.1749 88.607 29.6153C88.8887 29.9662 89.1071 30.1165 89.3015 30.1168C89.4464 30.1171 89.5543 30.0193 89.6403 29.9169C89.8116 29.7124 89.8955 29.4566 89.8955 29.4566Z" fill="#DB90B0"/>
</g>
<path d="M235.274 49.9062C233.972 49.75 232.683 49.5026 231.407 49.1641C230.157 48.8255 229.011 48.2396 227.97 47.4062L226.876 46.3516C226.121 45.388 225.574 44.3594 225.235 43.2656C224.897 42.1458 224.688 40.9609 224.61 39.7109L224.571 32.4453L224.649 32.3672L224.61 28.8906C224.714 28.3698 224.766 27.8229 224.766 27.25C224.766 26.6771 224.923 26.1432 225.235 25.6484C225.443 25.4922 225.665 25.388 225.899 25.3359C226.134 25.2578 226.381 25.2448 226.641 25.2969L227.423 25.6484C227.683 25.9609 227.813 26.3385 227.813 26.7812C227.839 27.224 227.839 27.6536 227.813 28.0703L227.696 29.125V32.4844L227.618 33.1875H227.93C229.285 32.7188 230.626 32.1979 231.954 31.625C233.308 31.0521 234.688 30.5443 236.095 30.1016L236.876 30.4922C237.032 30.7005 237.149 30.9219 237.227 31.1562C237.332 31.3646 237.345 31.612 237.266 31.8984L236.876 32.6797C235.548 33.4609 234.115 34.1641 232.579 34.7891C231.042 35.388 229.493 35.8438 227.93 36.1562L227.618 36.0781L227.696 39.5156C227.722 40.401 227.839 41.2474 228.048 42.0547C228.282 42.862 228.634 43.6042 229.102 44.2812H229.259V44.4375H229.415L229.884 44.9453C230.04 45.1797 230.235 45.349 230.47 45.4531C230.704 45.5573 230.925 45.7135 231.134 45.9219C231.993 46.1823 232.852 46.4036 233.712 46.5859C234.597 46.7422 235.509 46.8203 236.446 46.8203L238.009 46.6641L238.79 47.0547C238.92 47.263 239.024 47.4844 239.102 47.7188C239.18 47.9531 239.193 48.2005 239.141 48.4609L238.79 49.2812C238.269 49.5938 237.709 49.776 237.11 49.8281C236.511 49.8802 235.899 49.9062 235.274 49.9062ZM209.61 48.5391L208.829 48.1484C208.673 47.9401 208.555 47.7188 208.477 47.4844C208.425 47.25 208.425 47.0026 208.477 46.7422L208.829 45.9609C209.923 45.4922 211.029 45.1016 212.149 44.7891C213.295 44.4505 214.467 44.1771 215.665 43.9688L215.626 43.6562L215.587 43.5781L215.548 40.2188L215.665 39.2812L215.548 36.625L215.157 36.6641L210.509 36.9766C210.3 36.9505 210.105 36.8984 209.923 36.8203C209.74 36.7161 209.571 36.612 209.415 36.5078C209.233 36.2995 209.102 36.0781 209.024 35.8438C208.972 35.6094 208.972 35.362 209.024 35.1016L209.415 34.3203C210.326 34.0078 211.303 33.8385 212.345 33.8125C213.412 33.7865 214.467 33.7083 215.509 33.5781C215.509 32.4323 215.509 31.2865 215.509 30.1406C215.535 28.9688 215.743 27.862 216.134 26.8203C216.342 26.6641 216.55 26.5469 216.759 26.4688C216.993 26.3906 217.24 26.3776 217.501 26.4297L218.321 26.8203C218.634 27.237 218.777 27.7448 218.751 28.3438C218.725 28.9167 218.712 29.4896 218.712 30.0625L218.555 31.1562L218.634 38.9688L218.673 40.375L218.634 42.9531H218.946C219.363 42.7969 219.779 42.6536 220.196 42.5234C220.613 42.3672 221.082 42.3151 221.602 42.3672L222.384 42.7969C222.54 42.9792 222.657 43.1875 222.735 43.4219C222.813 43.6562 222.826 43.9036 222.774 44.1641L222.384 44.9844C220.3 45.7135 218.178 46.3516 216.016 46.8984C213.881 47.4453 211.746 47.9922 209.61 48.5391ZM263.34 53.3438L262.559 52.9531C262.454 52.7969 262.363 52.6276 262.285 52.4453C262.207 52.263 262.142 52.0677 262.09 51.8594V47.3672L262.402 45.4922L262.324 42.6016L262.402 40.5703H262.246L260.215 43.8516L259.824 44.2422C259.512 44.4505 259.212 44.6458 258.926 44.8281C258.639 45.0104 258.288 45.0755 257.871 45.0234L257.09 44.6328C256.934 44.4245 256.816 44.2031 256.738 43.9688C256.66 43.7344 256.647 43.487 256.699 43.2266L257.246 42.2891C258.184 41.3516 258.952 40.2969 259.551 39.125C260.15 37.9531 260.788 36.7943 261.465 35.6484L261.777 34.6328H261.23L259.434 34.7891C259.173 34.737 258.9 34.6719 258.613 34.5938C258.327 34.5156 258.079 34.3984 257.871 34.2422C257.715 34.0339 257.598 33.8125 257.52 33.5781C257.441 33.3438 257.428 33.0964 257.48 32.8359L257.871 32.0547C258.079 31.8984 258.301 31.7812 258.535 31.7031C258.77 31.625 259.043 31.612 259.355 31.6641L259.668 31.7422L262.637 31.5859L262.793 27.4844V25.0625L263.184 24.2812C263.392 24.125 263.613 24.0078 263.848 23.9297C264.108 23.8516 264.368 23.8385 264.629 23.8906L265.41 24.2812C265.775 24.9583 265.944 25.7135 265.918 26.5469C265.892 27.3802 265.879 28.2135 265.879 29.0469L265.723 31.5078H266.582L269.082 31.4297L270.098 31.8984C270.254 32.1068 270.371 32.3281 270.449 32.5625C270.527 32.7969 270.54 33.0443 270.488 33.3047L270.098 34.0859C269.629 34.3984 269.069 34.5286 268.418 34.4766C267.767 34.4245 267.155 34.4505 266.582 34.5547V34.7109L268.379 36.0391L269.16 36.7422V36.8984H269.316L269.629 37.2109C269.837 37.4193 269.993 37.6536 270.098 37.9141C270.202 38.1745 270.228 38.4609 270.176 38.7734L269.785 39.5547C269.577 39.7109 269.355 39.8281 269.121 39.9062C268.887 39.9844 268.639 39.9974 268.379 39.9453L267.285 39.3203L265.801 37.9141H265.566L265.488 38.2266V42.7578L265.41 45.1797L265.488 46.4297L265.176 47.6797V52.1719L264.785 52.9531C264.577 53.1094 264.355 53.2266 264.121 53.3047C263.887 53.3828 263.626 53.3958 263.34 53.3438ZM286.934 52.875L284.434 52.6406L282.91 52.7188L279.863 52.5625H275.332L270.879 52.7969L270.098 52.4062C269.941 52.1979 269.824 51.9766 269.746 51.7422C269.668 51.5078 269.655 51.2604 269.707 51L270.098 50.2188C271.139 49.8542 272.259 49.6589 273.457 49.6328C274.655 49.6068 275.853 49.5677 277.051 49.5156C277.884 47.6146 278.379 45.6354 278.535 43.5781C278.691 41.5208 278.796 39.4505 278.848 37.3672C278.796 36.8984 278.704 36.4557 278.574 36.0391C278.444 35.6224 278.249 35.2318 277.988 34.8672C277.572 34.763 277.142 34.6979 276.699 34.6719C276.257 34.6458 275.879 34.5026 275.566 34.2422C275.41 34.0339 275.293 33.8125 275.215 33.5781C275.137 33.3438 275.124 33.0964 275.176 32.8359L275.723 31.8984C276.191 31.4297 276.634 30.9219 277.051 30.375C277.467 29.8281 277.858 29.2552 278.223 28.6562H276.895L276.66 28.7344L275.801 28.6562L272.363 28.8906L271.582 28.5C271.426 28.2917 271.309 28.0703 271.23 27.8359C271.152 27.6016 271.139 27.3542 271.191 27.0938L271.582 26.3125C272.155 25.9479 272.806 25.7526 273.535 25.7266C274.264 25.7005 274.993 25.6615 275.723 25.6094H282.91L285.137 25.5312C285.345 25.5833 285.566 25.6354 285.801 25.6875C286.035 25.7396 286.23 25.8438 286.387 26C286.543 26.2083 286.66 26.4297 286.738 26.6641C286.816 26.8984 286.829 27.1719 286.777 27.4844L286.387 28.2656C286.178 28.4219 285.957 28.5391 285.723 28.6172C285.488 28.6953 285.241 28.7083 284.98 28.6562L283.145 28.5781L281.973 28.6562C281.816 29.099 281.582 29.4896 281.27 29.8281C280.957 30.1667 280.697 30.5443 280.488 30.9609H280.332L279.473 32.2109L280.332 32.7578C281.009 33.6953 281.465 34.7109 281.699 35.8047C281.934 36.8984 281.999 38.0703 281.895 39.3203C281.895 41.0911 281.764 42.8359 281.504 44.5547C281.243 46.2734 280.879 47.9531 280.41 49.5938L284.199 49.6719L285.215 49.5938C285.736 49.6458 286.27 49.6849 286.816 49.7109C287.363 49.737 287.845 49.9062 288.262 50.2188C288.418 50.4271 288.535 50.6484 288.613 50.8828C288.691 51.1172 288.704 51.3646 288.652 51.625L288.262 52.4062C288.053 52.5625 287.845 52.6667 287.637 52.7188C287.428 52.7708 287.194 52.8229 286.934 52.875ZM289.121 47.5234C288.913 47.4714 288.717 47.4062 288.535 47.3281C288.353 47.25 288.184 47.1589 288.027 47.0547L286.465 45.8047H286.23L285.762 46.3516L285.137 46.8984C284.876 47.1068 284.616 47.263 284.355 47.3672C284.095 47.4714 283.809 47.4974 283.496 47.4453L282.676 47.0547C282.52 46.8464 282.402 46.625 282.324 46.3906C282.246 46.1562 282.233 45.9089 282.285 45.6484L282.676 44.8672L283.965 43.6172L283.223 43.2266C283.066 43.0182 282.949 42.7969 282.871 42.5625C282.793 42.3281 282.78 42.0807 282.832 41.8203L283.223 41.0391C283.457 40.8828 283.691 40.7656 283.926 40.6875C284.16 40.6094 284.434 40.5964 284.746 40.6484L285.762 41.1172L286.23 39.7109H285.527L283.73 39.7891L282.91 39.3984C282.754 39.1901 282.637 38.9688 282.559 38.7344C282.48 38.5 282.467 38.2526 282.52 37.9922L282.91 37.2109C283.561 36.8464 284.264 36.6641 285.02 36.6641C285.775 36.6641 286.543 36.6641 287.324 36.6641C287.689 36.7161 288.04 36.7682 288.379 36.8203C288.717 36.8724 289.017 37.0026 289.277 37.2109C289.486 37.4193 289.629 37.6667 289.707 37.9531C289.785 38.2396 289.798 38.5391 289.746 38.8516C289.538 39.6328 289.29 40.388 289.004 41.1172C288.717 41.8464 288.418 42.5755 288.105 43.3047L290.137 44.6328C290.345 44.8932 290.501 45.1536 290.605 45.4141C290.71 45.6745 290.736 45.9609 290.684 46.2734L290.293 47.0547C290.137 47.2109 289.954 47.3151 289.746 47.3672C289.538 47.4193 289.329 47.4714 289.121 47.5234ZM275.254 46.4297C274.473 46.2734 273.665 46.1953 272.832 46.1953C271.999 46.1953 271.243 46.0391 270.566 45.7266C270.358 45.4661 270.228 45.1667 270.176 44.8281C270.124 44.4896 270.072 44.1641 270.02 43.8516V40.3359C270.072 40.0755 270.124 39.8281 270.176 39.5938C270.228 39.3594 270.358 39.138 270.566 38.9297L271.191 38.1484C271.921 37.8359 272.702 37.6667 273.535 37.6406C274.368 37.6146 275.228 37.6016 276.113 37.6016L277.363 38.2266C277.676 38.6953 277.806 39.2422 277.754 39.8672C277.702 40.4922 277.702 41.0911 277.754 41.6641L277.676 42.0547L277.754 43.1484C277.65 43.5651 277.598 43.9948 277.598 44.4375C277.598 44.8802 277.467 45.2839 277.207 45.6484C276.895 45.8568 276.582 46.0391 276.27 46.1953C275.957 46.3516 275.618 46.4297 275.254 46.4297ZM274.629 43.2266V43.0703L274.707 42.3672L274.629 41.5859L274.707 40.6484H273.77L273.066 40.8047V43.1484L274.629 43.2266ZM326.679 50.1406L325.898 49.75C325.741 49.5417 325.624 49.3203 325.546 49.0859C325.468 48.8255 325.455 48.5391 325.507 48.2266L325.898 47.4453C326.262 46.9766 326.601 46.4688 326.913 45.9219C327.226 45.375 327.538 44.8151 327.851 44.2422C328.111 43.5651 328.32 42.888 328.476 42.2109C328.632 41.5339 328.684 40.8047 328.632 40.0234C328.58 39.2422 328.372 38.5391 328.007 37.9141C327.642 37.2891 327.174 36.6901 326.601 36.1172C325.924 35.5964 325.168 35.2578 324.335 35.1016C323.502 34.9453 322.616 34.8672 321.679 34.8672C321.783 36.7422 321.614 38.5 321.171 40.1406C320.728 41.7812 320.012 43.3307 319.023 44.7891H318.866L318.632 45.2578L318.007 45.9609L317.538 46.4297L317.07 46.6641V46.8203C316.497 47.2891 315.846 47.6146 315.116 47.7969C314.387 47.9792 313.632 48.0443 312.851 47.9922C312.434 47.888 312.043 47.7448 311.679 47.5625C311.314 47.3802 310.976 47.1589 310.663 46.8984C310.142 46.2734 309.817 45.5573 309.687 44.75C309.583 43.9427 309.53 43.1224 309.53 42.2891C309.635 40.9349 309.973 39.6719 310.546 38.5C311.145 37.3281 311.887 36.2214 312.773 35.1797C313.814 34.0859 314.986 33.2786 316.288 32.7578C317.59 32.237 318.945 31.8984 320.351 31.7422C321.705 31.7422 323.033 31.8333 324.335 32.0156C325.637 32.1979 326.835 32.6016 327.929 33.2266L328.866 34.0078V34.1641H329.023L329.804 35.0234C330.611 35.9609 331.158 36.9896 331.445 38.1094C331.731 39.2292 331.822 40.4401 331.718 41.7422C331.51 43.2005 331.093 44.5547 330.468 45.8047C329.869 47.0547 329.153 48.2917 328.32 49.5156L328.085 49.75C327.877 49.9062 327.655 50.0234 327.421 50.1016C327.187 50.1797 326.939 50.1927 326.679 50.1406ZM315.038 44.4766C315.507 44.112 315.924 43.6953 316.288 43.2266C316.653 42.7578 316.965 42.2891 317.226 41.8203C317.747 40.8307 318.124 39.7891 318.359 38.6953C318.593 37.6016 318.684 36.4557 318.632 35.2578H318.32C318.007 35.362 317.708 35.4661 317.421 35.5703C317.135 35.6745 316.861 35.8047 316.601 35.9609V36.1172L314.882 37.2891C314.153 38.2266 313.567 39.2292 313.124 40.2969C312.681 41.3646 312.512 42.5234 312.616 43.7734L312.851 44.7109C313.007 44.8151 313.163 44.8802 313.32 44.9062C313.476 44.9323 313.658 44.9453 313.866 44.9453L315.038 44.4766ZM159.777 92.1719C159.569 92.1198 159.374 92.0547 159.191 91.9766C159.009 91.8984 158.84 91.8073 158.684 91.7031C158.527 91.4948 158.41 91.2734 158.332 91.0391C158.254 90.8047 158.241 90.5573 158.293 90.2969L158.762 89.3594L159.23 88.8516C159.699 88.3828 160.129 87.862 160.52 87.2891C160.91 86.7161 161.262 86.1432 161.574 85.5703L161.652 84.0859C161.6 83.8776 161.522 83.6562 161.418 83.4219C161.314 83.1875 161.184 82.9922 161.027 82.8359C160.767 82.6276 160.441 82.5104 160.051 82.4844C159.66 82.4583 159.283 82.4453 158.918 82.4453C158.033 82.7057 157.186 83.0703 156.379 83.5391C155.572 84.0078 154.673 84.2943 153.684 84.3984C153.371 84.3464 153.059 84.2422 152.746 84.0859C152.434 83.9297 152.147 83.7214 151.887 83.4609C151.47 82.9922 151.184 82.4583 151.027 81.8594C150.871 81.2604 150.741 80.6484 150.637 80.0234V75.9609C150.741 75.388 150.832 74.8151 150.91 74.2422C150.988 73.6693 151.236 73.1745 151.652 72.7578C151.861 72.6016 152.082 72.4844 152.316 72.4062C152.551 72.3281 152.798 72.3151 153.059 72.3672L153.84 72.7578C153.996 72.9661 154.113 73.1875 154.191 73.4219C154.27 73.6562 154.283 73.9036 154.23 74.1641C154.074 74.4766 153.97 74.8151 153.918 75.1797C153.866 75.5443 153.788 75.8828 153.684 76.1953V79.8672L154.074 81.1172H154.465C155.35 80.5443 156.301 80.0885 157.316 79.75C158.332 79.4115 159.439 79.2943 160.637 79.3984C161.105 79.5026 161.561 79.6589 162.004 79.8672C162.447 80.0755 162.85 80.3359 163.215 80.6484L163.684 81.1953C164.152 81.8203 164.452 82.4974 164.582 83.2266C164.712 83.9557 164.751 84.737 164.699 85.5703C164.595 86.3516 164.348 87.0677 163.957 87.7188C163.566 88.3698 163.137 89.0208 162.668 89.6719L162.199 90.2188H162.043L161.574 91L161.105 91.5469H160.949V91.7031C160.793 91.8594 160.611 91.9635 160.402 92.0156C160.194 92.0677 159.986 92.1198 159.777 92.1719ZM156.184 71.1953C155.507 70.8307 154.816 70.5052 154.113 70.2188C153.41 69.9323 152.72 69.6068 152.043 69.2422C151.887 69.0078 151.77 68.7734 151.691 68.5391C151.613 68.3047 151.6 68.0573 151.652 67.7969L152.043 67.0156C152.251 66.8594 152.473 66.7422 152.707 66.6641C152.941 66.5859 153.215 66.5729 153.527 66.625C154.152 66.8854 154.79 67.1328 155.441 67.3672C156.092 67.6016 156.704 67.9531 157.277 68.4219C157.434 68.6302 157.564 68.8646 157.668 69.125C157.772 69.3594 157.798 69.6328 157.746 69.9453L157.355 70.7266C157.199 70.8828 157.017 70.987 156.809 71.0391C156.6 71.0911 156.392 71.1432 156.184 71.1953ZM200.499 88.1484C198.728 87.2109 196.971 86.2083 195.226 85.1406C193.481 84.0729 191.775 82.9401 190.109 81.7422C189.9 81.5339 189.757 81.2865 189.679 81C189.601 80.7135 189.588 80.4141 189.64 80.1016L190.03 79.3203H190.187L191.359 77.4453H191.515L192.609 75.9609C193.442 75.0755 194.262 74.151 195.07 73.1875C195.877 72.224 196.749 71.3125 197.687 70.4531L197.999 70.1406C198.312 69.8281 198.637 69.5547 198.976 69.3203C199.314 69.0859 199.718 68.9948 200.187 69.0469L200.968 69.4375C201.124 69.6458 201.241 69.8672 201.32 70.1016C201.398 70.3359 201.411 70.6224 201.359 70.9609L200.968 71.7422L200.734 71.9766L200.343 72.1328V72.2891L199.796 72.8359L199.484 73.1484C199.015 73.5651 198.598 73.9688 198.234 74.3594C197.869 74.75 197.53 75.1797 197.218 75.6484L196.671 76.3516L196.124 76.8984L195.577 77.4453L195.03 77.9922L194.64 78.3828H194.484L194.249 78.8516L193.312 80.3359C194.666 81.2214 196.033 82.0677 197.413 82.875C198.793 83.6823 200.187 84.5286 201.593 85.4141C201.749 85.6224 201.879 85.8438 201.984 86.0781C202.088 86.3125 202.114 86.5859 202.062 86.8984L201.671 87.6797C201.515 87.8359 201.333 87.9401 201.124 87.9922C200.916 88.0443 200.708 88.0964 200.499 88.1484ZM233.135 89.4375L232.354 89.0078C232.198 88.7995 232.08 88.5781 232.002 88.3438C231.924 88.1094 231.911 87.862 231.963 87.6016C232.797 86.2995 233.461 84.9453 233.955 83.5391C234.45 82.1328 234.646 80.5964 234.541 78.9297L233.838 77.6797C233.682 77.5234 233.5 77.4193 233.291 77.3672C233.083 77.3151 232.849 77.3151 232.588 77.3672L231.104 77.6016C230.896 78.9036 230.661 80.1927 230.401 81.4688C230.14 82.7448 229.776 83.9818 229.307 85.1797C229.099 85.3359 228.864 85.4531 228.604 85.5312C228.37 85.6094 228.122 85.6224 227.862 85.5703L227.08 85.1797C226.924 85.0234 226.82 84.8281 226.768 84.5938C226.716 84.3594 226.664 84.138 226.612 83.9297L227.862 78.6172H227.549L225.674 78.9297L224.893 78.5391C224.737 78.3307 224.62 78.1094 224.541 77.875C224.463 77.6406 224.45 77.3932 224.502 77.1328L224.893 76.3516C225.466 76.0911 226.052 75.8698 226.651 75.6875C227.25 75.5052 227.836 75.3099 228.409 75.1016C228.591 74.3724 228.669 73.6172 228.643 72.8359C228.617 72.0547 228.76 71.3516 229.073 70.7266C229.281 70.5703 229.502 70.4531 229.737 70.375C229.971 70.2969 230.218 70.2839 230.479 70.3359L231.26 70.7266C231.521 71.0911 231.664 71.4948 231.69 71.9375C231.716 72.3802 231.729 72.8359 231.729 73.3047L231.573 74.4766H231.729L233.995 74.3203C234.359 74.4245 234.711 74.5938 235.049 74.8281C235.388 75.0625 235.713 75.2839 236.026 75.4922L236.416 75.8828C236.937 76.612 237.289 77.4193 237.471 78.3047C237.653 79.1901 237.692 80.1276 237.588 81.1172C237.432 82.4193 237.146 83.6823 236.729 84.9062C236.312 86.1302 235.765 87.2891 235.088 88.3828H234.932L234.698 88.8516C234.489 89.0859 234.255 89.2552 233.995 89.3594C233.734 89.4635 233.448 89.4896 233.135 89.4375ZM248.565 82.6797L247.745 82.2891C246.963 81.0911 246.182 79.8932 245.401 78.6953C244.62 77.4974 243.708 76.3776 242.666 75.3359C242.406 75.0755 242.185 74.7891 242.002 74.4766C241.82 74.1641 241.755 73.7995 241.807 73.3828L242.198 72.6016C242.406 72.4453 242.627 72.3281 242.862 72.25C243.096 72.1719 243.343 72.1589 243.604 72.2109L244.385 72.6016L244.698 72.9141L245.088 73.3047L245.401 73.6172L246.885 75.4922C247.51 76.4818 248.161 77.4583 248.838 78.4219C249.541 79.3854 250.049 80.4141 250.362 81.5078L249.971 82.2891C249.763 82.4453 249.541 82.5625 249.307 82.6406C249.073 82.7188 248.825 82.7318 248.565 82.6797ZM250.127 76.4297L249.346 76.0391C249.138 75.5703 248.825 75.1536 248.409 74.7891C248.018 74.4245 247.692 74.0339 247.432 73.6172L247.354 72.6797L247.745 71.8984C247.953 71.7422 248.174 71.625 248.409 71.5469C248.669 71.4688 248.929 71.4557 249.19 71.5078L249.971 71.8984L250.987 72.9141C251.247 73.2786 251.482 73.6432 251.69 74.0078C251.898 74.3724 251.976 74.7891 251.924 75.2578L251.534 76.0391C251.325 76.1953 251.104 76.3125 250.87 76.3906C250.635 76.4688 250.388 76.4818 250.127 76.4297ZM253.174 74.3984L252.237 73.8516C251.976 73.487 251.729 73.1094 251.495 72.7188C251.26 72.3281 251.169 71.8724 251.221 71.3516L251.612 70.5703C251.82 70.4141 252.041 70.2969 252.276 70.2188C252.51 70.1406 252.758 70.1276 253.018 70.1797L253.799 70.5703C254.008 70.987 254.268 71.4036 254.58 71.8203C254.893 72.237 255.023 72.7057 254.971 73.2266L254.58 74.0078C254.372 74.1641 254.151 74.2812 253.916 74.3594C253.682 74.4375 253.435 74.4505 253.174 74.3984ZM280.771 93.5781C280.407 93.526 280.055 93.3698 279.716 93.1094C279.378 92.849 279.052 92.6146 278.74 92.4062L277.49 91.0781C276.969 90.2969 276.461 89.4896 275.966 88.6562C275.472 87.7969 275.172 86.8724 275.068 85.8828L275.459 85.1016C275.667 84.9453 275.888 84.8281 276.123 84.75C276.357 84.6719 276.604 84.6589 276.865 84.7109L277.646 85.1016L279.677 88.9297H279.834L280.459 89.6719L280.771 89.9844L281.943 90.9219C282.099 91.1302 282.216 91.3516 282.295 91.5859C282.373 91.8203 282.386 92.0677 282.334 92.3281L281.943 93.1094C281.787 93.2656 281.604 93.3698 281.396 93.4219C281.188 93.474 280.979 93.526 280.771 93.5781ZM285.459 82.1328L284.677 81.7422L283.115 78.6172H282.646C281.604 78.7734 280.576 78.9948 279.56 79.2812C278.545 79.5677 277.49 79.763 276.396 79.8672L275.615 79.4766C275.459 79.2682 275.341 79.0469 275.263 78.8125C275.185 78.5781 275.172 78.3307 275.224 78.0703L275.615 77.2891C276.604 76.9245 277.607 76.612 278.623 76.3516C279.638 76.0911 280.693 75.9089 281.787 75.8047V75.4922L280.224 72.6016H279.834C279.104 72.7057 278.375 72.849 277.646 73.0312C276.917 73.2135 276.162 73.3307 275.38 73.3828L274.599 72.9922C274.443 72.7839 274.326 72.5625 274.248 72.3281C274.17 72.0938 274.157 71.8464 274.209 71.5859L274.599 70.8047C275.224 70.4922 275.901 70.2708 276.63 70.1406C277.36 70.0104 278.089 69.8932 278.818 69.7891V69.6328C278.662 69.1901 278.453 68.7734 278.193 68.3828C277.933 67.9922 277.828 67.5365 277.88 67.0156L278.271 66.2344C278.479 66.0781 278.701 65.9609 278.935 65.8828C279.17 65.8047 279.417 65.7917 279.677 65.8438L280.459 66.2344C280.771 66.7031 281.045 67.1849 281.279 67.6797C281.513 68.1745 281.761 68.6693 282.021 69.1641L282.49 69.2422L284.052 69.0469L284.834 69.4766C284.99 69.6849 285.107 69.9062 285.185 70.1406C285.263 70.375 285.276 70.6224 285.224 70.8828L284.834 71.6641C284.625 71.8203 284.43 71.9375 284.248 72.0156C284.065 72.0938 283.844 72.1328 283.584 72.1328V72.3672L284.834 74.9453H285.146C285.719 74.7891 286.331 74.6719 286.982 74.5938C287.633 74.5156 288.271 74.4505 288.896 74.3984L289.677 74.7891C289.834 74.9974 289.951 75.2188 290.029 75.4531C290.107 75.6875 290.12 75.9349 290.068 76.1953L289.677 76.9766C289.209 77.2891 288.675 77.4714 288.076 77.5234C287.477 77.5755 286.891 77.6536 286.318 77.7578L286.24 78.1484C286.5 78.5651 286.735 78.9948 286.943 79.4375C287.151 79.8802 287.255 80.388 287.255 80.9609L286.865 81.7422C286.657 81.8984 286.435 82.0156 286.201 82.0938C285.966 82.1719 285.719 82.1849 285.459 82.1328ZM332.743 94.5547C331.805 94.4766 330.855 94.3854 329.891 94.2812C328.954 94.1771 327.99 94.1641 327.001 94.2422C326.584 94.3464 326.167 94.4115 325.751 94.4375C325.334 94.4635 324.891 94.4766 324.423 94.4766L323.641 94.125C323.095 92.901 322.808 91.612 322.782 90.2578C322.782 88.8776 322.639 87.5104 322.352 86.1562L322.743 85.4141C322.951 85.2578 323.173 85.1536 323.407 85.1016C323.641 85.0234 323.889 85.0104 324.149 85.0625L324.696 85.1406C325.634 85.0625 326.584 84.9583 327.548 84.8281C328.511 84.6719 329.501 84.5938 330.516 84.5938C331.298 84.6719 332.105 84.724 332.938 84.75C333.772 84.776 334.501 84.9714 335.126 85.3359L335.36 85.5703C335.673 85.9609 335.842 86.4167 335.868 86.9375C335.92 87.4323 335.946 87.9531 335.946 88.5C335.738 89.3854 335.608 90.2708 335.555 91.1562C335.529 92.0417 335.347 92.9141 335.009 93.7734C334.644 93.9818 334.266 94.125 333.876 94.2031C333.485 94.2812 333.108 94.3984 332.743 94.5547ZM316.259 94.6719L315.477 94.2812C315.321 94.0729 315.191 93.8516 315.087 93.6172C315.009 93.4089 314.996 93.1875 315.048 92.9531C316.584 90.1146 318.108 87.1849 319.618 84.1641C321.128 81.1432 321.845 77.9401 321.766 74.5547C321.61 74.3984 321.519 74.2292 321.493 74.0469C321.467 73.8385 321.454 73.6042 321.454 73.3438L321.805 72.6016C322.795 72.3151 323.811 72.1198 324.852 72.0156C325.894 71.8854 326.936 71.7812 327.977 71.7031V71.5859L326.962 70.4922C326.701 70.2318 326.48 69.9583 326.298 69.6719C326.141 69.3854 326.089 69.0599 326.141 68.6953L326.532 67.9141C326.74 67.7839 326.962 67.6797 327.196 67.6016C327.43 67.5234 327.678 67.4974 327.938 67.5234L328.72 67.875L329.032 68.4609L329.852 69.0469C330.113 69.3854 330.386 69.75 330.673 70.1406C330.985 70.5052 331.115 70.9349 331.063 71.4297L330.985 71.625C331.662 71.651 332.352 71.6901 333.055 71.7422C333.759 71.7943 334.397 71.9896 334.97 72.3281V72.4453H335.126C335.282 72.6536 335.412 72.862 335.516 73.0703C335.647 73.2526 335.738 73.474 335.79 73.7344L335.829 76.8203C335.673 77.4714 335.582 78.1484 335.555 78.8516C335.529 79.5547 335.399 80.2057 335.165 80.8047L335.243 81.4688L334.852 82.25C334.071 82.6146 333.186 82.7839 332.196 82.7578C331.207 82.7057 330.256 82.7448 329.345 82.875L326.063 82.9141L323.798 83.1875L323.329 83.1094C322.522 84.9844 321.662 86.8594 320.751 88.7344C319.839 90.5833 318.837 92.3932 317.743 94.1641C317.535 94.3203 317.313 94.4505 317.079 94.5547C316.845 94.6849 316.571 94.724 316.259 94.6719ZM332.47 91.5859V91L332.899 87.7188L329.11 87.5234C328.537 87.6276 327.964 87.7188 327.391 87.7969C326.818 87.849 326.246 87.901 325.673 87.9531V88.3047L326.024 91.5078H326.259L326.805 91.3516L330.048 91.3125L332.47 91.5859ZM332.47 79.8281V78.4609L330.829 78.5L330.048 78.6562L326.415 78.6953C326.102 78.7474 325.79 78.7734 325.477 78.7734C325.165 78.7734 324.878 78.8255 324.618 78.9297L324.423 80.1797H324.97L326.063 80.0234L329.188 79.9844L332.47 79.8281ZM342.47 75.7266C342.261 75.6745 342.066 75.6224 341.884 75.5703C341.701 75.4922 341.532 75.4141 341.376 75.3359L340.829 74.7109V74.5938L338.641 73.1484L336.688 71.8594C336.324 71.7031 335.998 71.5078 335.712 71.2734C335.425 71.013 335.126 70.7656 334.813 70.5312L333.759 69.6719L333.134 69.1641L330.946 67.4453L328.759 65.8047L328.446 65.375H328.29L326.298 66.9766L325.985 67.4062L324.579 68.4219L324.188 68.9297L320.243 72.2891L317.821 73.8516V73.9688C317.509 74.2292 317.183 74.4375 316.845 74.5938C316.506 74.75 316.128 74.8021 315.712 74.75L314.93 74.3984C314.774 74.1901 314.657 73.9818 314.579 73.7734C314.501 73.5391 314.475 73.3047 314.501 73.0703L314.891 72.3281C316.246 71.4948 317.548 70.5573 318.798 69.5156C320.048 68.474 321.259 67.4323 322.43 66.3906L324.149 64.9453L324.696 64.4375C325.425 63.9948 326.089 63.4609 326.688 62.8359C327.313 62.1849 328.121 61.9375 329.11 62.0938L329.93 62.4844L331.454 64.0078V64.125L332.938 65.1016L333.798 65.7656L334.423 66.3125L334.462 66.4297L335.165 66.7812L335.79 67.2891L336.18 67.6797L336.727 68.1484L337.196 68.6172C337.977 69.1641 338.798 69.7109 339.657 70.2578C340.516 70.8047 341.363 71.3646 342.196 71.9375V72.0938L342.899 72.4453L343.134 72.6797L343.485 73.1875H343.641C343.798 73.3958 343.915 73.6172 343.993 73.8516C344.071 74.0599 344.084 74.2943 344.032 74.5547L343.641 75.2969C343.485 75.4271 343.303 75.5182 343.095 75.5703C342.886 75.6224 342.678 75.6745 342.47 75.7266ZM332.743 75.5312V74.7109C332.274 74.6328 331.792 74.5938 331.298 74.5938C330.803 74.5677 330.295 74.5547 329.774 74.5547C328.915 74.5807 328.068 74.6198 327.235 74.6719C326.402 74.6979 325.595 74.7891 324.813 74.9453V75.9219H324.97L326.298 75.7656L329.852 75.7266C330.321 75.6224 330.803 75.5703 331.298 75.5703C331.792 75.5443 332.274 75.5312 332.743 75.5312ZM381.004 95.2188L380.223 94.8281C380.066 94.6198 379.962 94.4115 379.91 94.2031C379.858 93.9948 379.806 93.7604 379.754 93.5L379.988 89.9062H379.207C377.853 89.9062 376.538 89.9974 375.262 90.1797C373.986 90.362 372.827 90.4531 371.785 90.4531L371.004 90.0625C370.848 89.8542 370.73 89.6328 370.652 89.3984C370.574 89.1641 370.561 88.9036 370.613 88.6172L371.004 87.8359C372.202 87.4714 373.569 87.224 375.105 87.0938C376.642 86.9635 378.217 86.8724 379.832 86.8203V86.4297L379.754 85.1016H379.051C378.374 85.1536 377.723 85.2318 377.098 85.3359C376.473 85.4401 375.822 85.5182 375.145 85.5703L374.363 85.1797C373.947 83.7214 373.634 82.2109 373.426 80.6484C373.217 79.0859 373.009 77.5234 372.801 75.9609L373.191 75.1797C374.129 74.763 375.132 74.5026 376.199 74.3984C377.267 74.2943 378.348 74.1901 379.441 74.0859V73.3047C379.337 73.2005 379.207 73.1484 379.051 73.1484C378.895 73.1484 378.738 73.1484 378.582 73.1484L374.598 73.6172L373.816 73.2266C373.66 73.0182 373.543 72.7969 373.465 72.5625C373.387 72.3281 373.374 72.0807 373.426 71.8203L373.816 71.0391C374.65 70.6224 375.535 70.388 376.473 70.3359C377.41 70.2839 378.348 70.2057 379.285 70.1016V69.3984L379.129 68.5781H378.738L378.66 68.6562H374.91L372.723 68.8906C372.879 73.2917 372.319 77.5625 371.043 81.7031C369.793 85.8438 368.204 89.8542 366.277 93.7344C366.069 93.9427 365.835 94.099 365.574 94.2031C365.314 94.3073 365.027 94.3333 364.715 94.2812L363.934 93.8906C363.777 93.6823 363.66 93.4609 363.582 93.2266C363.504 92.9922 363.491 92.7448 363.543 92.4844C365.158 89.1771 366.525 85.8047 367.645 82.3672C368.764 78.9297 369.441 75.388 369.676 71.7422V67.0156L370.066 66.2344C370.275 66.0781 370.496 65.9609 370.73 65.8828C370.965 65.8047 371.212 65.7917 371.473 65.8438L372.332 65.9219L374.832 65.6094H378.113V65.375C377.957 64.8021 377.71 64.2943 377.371 63.8516C377.033 63.4089 376.863 62.875 376.863 62.25L377.254 61.4688C377.462 61.3125 377.684 61.1953 377.918 61.1172C378.152 61.0391 378.4 61.026 378.66 61.0781L379.441 61.4688C379.91 62.0417 380.301 62.6667 380.613 63.3438C380.926 64.0208 381.108 64.75 381.16 65.5312H382.332L384.91 65.4531C385.639 65.5573 386.408 65.5964 387.215 65.5703C388.022 65.5443 388.764 65.6875 389.441 66C389.624 66.2083 389.767 66.4297 389.871 66.6641C389.975 66.8984 390.001 67.1719 389.949 67.4844L389.52 68.2656C389.103 68.5781 388.621 68.7214 388.074 68.6953C387.527 68.6693 386.993 68.6562 386.473 68.6562L382.566 68.5L382.254 68.5781V68.9688L382.332 70.0234H387.879C388.087 70.0755 388.296 70.1276 388.504 70.1797C388.712 70.2318 388.895 70.3359 389.051 70.4922C389.207 70.7005 389.324 70.9219 389.402 71.1562C389.48 71.3906 389.493 71.638 389.441 71.8984L389.051 72.6797C388.842 72.8359 388.621 72.9401 388.387 72.9922C388.152 73.0443 387.905 73.0964 387.645 73.1484L387.566 73.0703H382.488V74.0859H383.113L385.691 74.0078C386.473 74.0599 387.241 74.151 387.996 74.2812C388.751 74.4115 389.48 74.6589 390.184 75.0234C390.392 75.2839 390.535 75.5703 390.613 75.8828C390.691 76.1953 390.704 76.5339 390.652 76.8984C390.444 78.2005 390.171 79.5026 389.832 80.8047C389.52 82.1068 389.155 83.3828 388.738 84.6328C388.53 84.7891 388.309 84.9062 388.074 84.9844C387.84 85.0625 387.566 85.0755 387.254 85.0234C386.889 84.9193 386.512 84.8672 386.121 84.8672C385.73 84.8672 385.353 84.8672 384.988 84.8672L382.801 84.9453V86.1953L382.879 86.6641L384.207 86.7422H388.973C389.78 86.7943 390.47 86.8203 391.043 86.8203C391.616 86.8203 392.267 86.9505 392.996 87.2109C393.152 87.4193 393.27 87.6406 393.348 87.875C393.426 88.1094 393.439 88.3568 393.387 88.6172L392.996 89.4375C392.736 89.6458 392.436 89.776 392.098 89.8281C391.759 89.8802 391.408 89.9062 391.043 89.9062C390.574 89.75 390.184 89.7109 389.871 89.7891C389.585 89.8672 389.207 89.8802 388.738 89.8281H384.051L383.035 89.75C382.983 90.8958 382.957 91.7812 382.957 92.4062C382.957 93.0312 382.775 93.8385 382.41 94.8281C382.202 94.9844 381.98 95.1016 381.746 95.1797C381.512 95.2578 381.264 95.2708 381.004 95.2188ZM379.676 82.0547V81.1953H379.285L376.629 81.6641V81.8984L376.707 82.2109H377.801L379.676 82.0547ZM386.473 81.8203V81.6641L386.551 81.3516C385.978 81.1953 385.353 81.1172 384.676 81.1172C383.999 81.1172 383.348 81.0911 382.723 81.0391V81.8984H384.676L386.473 81.8203ZM387.254 78.1484V77.8359L387.332 77.2891C386.655 77.1849 385.978 77.1198 385.301 77.0938C384.624 77.0677 383.947 77.0547 383.27 77.0547L382.645 77.1328V77.4453L382.723 77.9922L387.176 78.2266L387.254 78.1484ZM379.598 78.0703L379.676 77.7578L379.598 77.1328H379.129L376.082 77.5234V78.2266L376.16 78.6172H376.551C377.02 78.4609 377.514 78.3568 378.035 78.3047C378.556 78.2526 379.077 78.1745 379.598 78.0703Z" fill="white"/>
<defs>
<clipPath id="clip0_184_78">
<rect width="99" height="99" fill="white" transform="translate(20 10)"/>
</clipPath>
</defs>
</svg>
